<svg width="1306" height="455" viewBox="0 0 1306 455" fill="none" xmlns="http://www.w3.org/2000/svg">
<path d="M315.676 185.783L258.763 109.746C257.884 108.572 256.505 107.879 255.041 107.879H74.3512C48.1583 108.066 30.6553 123.943 30.6553 146.65V192.652H315.184C317.501 192.652 318.824 189.998 317.433 188.14L315.672 185.783H315.676Z" fill="white"/>
<path d="M1303.15 107.879H1180.73V192.652H1243.23C1248.44 192.652 1250.97 191.329 1253.9 187.212L1304.86 113.178L1305.46 112.302C1306.75 110.431 1305.42 107.879 1303.15 107.879Z" fill="white"/>
<path d="M958.488 221.918V146.646C958.488 146.646 958.356 132.249 946.955 121.004C939.644 113.795 927.704 107.879 908.194 107.879H676.895C674.952 107.879 673.285 109.061 672.576 110.75C672.457 111.03 672.364 111.324 672.304 111.63C672.245 111.936 672.211 112.251 672.211 112.579V115.518V119.277V181.186V185.009V192.648H860.492C860.811 192.648 861.112 192.703 861.4 192.801C861.617 192.873 861.82 192.975 862.011 193.094C862.041 193.111 862.071 193.133 862.1 193.154C862.61 193.507 862.996 194.026 863.182 194.63C863.238 194.808 863.276 194.991 863.293 195.178C863.301 195.272 863.305 195.37 863.305 195.468V205.947V252.821V259.983C863.305 261.54 862.045 262.803 860.492 262.803H766.596C765.043 262.803 763.782 261.54 763.782 259.983V255.007V225.576V214.126C763.782 213.424 763.625 212.761 763.35 212.161C762.607 210.545 760.982 209.422 759.094 209.422H672.215V437.768V448.209V449.647C672.215 449.97 672.249 450.289 672.309 450.595C672.368 450.902 672.461 451.195 672.58 451.476C673.034 452.552 673.879 453.419 674.931 453.909C675.529 454.189 676.195 454.347 676.9 454.347H759.089C759.794 454.347 760.46 454.185 761.058 453.909C762.111 453.419 762.955 452.552 763.409 451.476C763.528 451.195 763.621 450.902 763.681 450.595C763.74 450.289 763.774 449.974 763.774 449.647V448.209V434.893V345.913H911.351L911.368 345.909C911.724 345.918 912.085 345.918 912.445 345.909C921.428 345.798 930.593 342.332 938.358 336.795C938.978 336.352 939.593 335.897 940.196 335.425C940.798 334.957 941.392 334.472 941.973 333.979C942.848 333.239 943.696 332.473 944.519 331.678C953.023 323.495 958.687 312.684 958.492 301.698V221.914L958.488 221.918Z" fill="white"/>
<path d="M634.745 147.795C633.638 134.811 627.036 123.884 617.208 116.743C616.954 116.56 616.699 116.377 616.445 116.199C616.063 115.935 615.677 115.671 615.286 115.421C615.193 115.361 615.1 115.301 615.011 115.246C614.115 114.672 613.19 114.128 612.248 113.617C605.404 109.896 597.414 107.799 588.839 107.773H391.723C380.504 107.807 370.283 111.38 362.327 117.513C361.941 117.811 361.559 118.113 361.185 118.423C360.642 118.87 360.112 119.329 359.594 119.801C359.119 120.231 358.656 120.673 358.202 121.124C358.194 121.132 358.19 121.137 358.181 121.145C351.244 128.052 346.716 137.243 345.817 147.795C345.795 148.063 345.787 148.335 345.783 148.603C345.783 148.616 345.783 148.625 345.783 148.637V192.674H548.737C549.127 192.674 549.496 192.755 549.832 192.895C549.916 192.929 549.997 192.972 550.078 193.014C550.205 193.083 550.319 193.163 550.434 193.248C551.113 193.763 551.55 194.575 551.55 195.494V367.716C551.55 368.494 551.236 369.2 550.727 369.71C550.218 370.221 549.513 370.535 548.737 370.535H431.583C431.1 370.535 430.641 370.412 430.243 370.195C430.213 370.178 430.187 370.161 430.162 370.144C429.954 370.021 429.763 369.876 429.598 369.71C429.301 369.413 429.076 369.051 428.936 368.651C428.834 368.358 428.774 368.047 428.774 367.72V214.148C428.774 213.446 428.617 212.783 428.342 212.183C428.108 211.677 427.79 211.214 427.4 210.822C427.294 210.716 427.183 210.614 427.069 210.52C426.258 209.848 425.219 209.449 424.086 209.449H345.575V406.564C345.541 409.907 345.846 413.147 346.462 416.265C346.491 416.427 346.525 416.588 346.559 416.75C346.687 417.362 346.827 417.97 346.975 418.57C347.026 418.77 347.077 418.974 347.132 419.174C347.281 419.731 347.438 420.28 347.603 420.824C347.675 421.062 347.752 421.305 347.828 421.543C348.108 422.411 348.413 423.266 348.74 424.108C349.3 425.545 349.924 426.94 350.616 428.301C350.785 428.633 350.955 428.961 351.133 429.288C351.341 429.671 351.553 430.054 351.77 430.428C351.927 430.704 352.088 430.977 352.254 431.249C353.132 432.703 354.082 434.103 355.105 435.442C355.436 435.876 355.771 436.306 356.119 436.727C365.132 447.734 378.977 454.505 393.875 454.309H586.458C612.346 454.649 635.051 433.954 634.758 406.572L634.775 260.839L634.784 179.383V148.65C634.784 148.369 634.775 148.089 634.754 147.808L634.745 147.795Z" fill="white"/>
<path d="M1164.01 107.879H987.252C986.692 107.879 986.157 107.981 985.657 108.164C985.44 108.24 985.232 108.33 985.033 108.44L985.016 108.449C983.552 109.244 982.563 110.797 982.563 112.583V187.952C982.563 190.547 984.664 192.652 987.252 192.652H1069.63C1069.99 192.652 1070.32 192.72 1070.63 192.839C1071.44 193.145 1072.06 193.805 1072.32 194.634C1072.37 194.813 1072.41 194.996 1072.43 195.183C1072.44 195.276 1072.44 195.374 1072.44 195.472V437.657V447.035V449.643C1072.44 449.966 1072.48 450.285 1072.54 450.591C1072.59 450.897 1072.69 451.191 1072.81 451.471C1073.26 452.547 1074.11 453.415 1075.16 453.904C1075.76 454.185 1076.42 454.342 1077.13 454.342H1159.32C1161.9 454.342 1164 452.237 1164 449.643V107.879H1164.01Z" fill="white"/>
<path d="M317.777 390.565C317.786 389.579 317.777 388.605 317.743 387.643C317.697 386.176 317.603 384.739 317.476 383.348C317.408 382.625 317.328 381.906 317.234 381.187C317.217 381.043 317.196 380.894 317.179 380.749C317.09 380.069 316.988 379.392 316.874 378.72C316.844 378.55 316.814 378.384 316.784 378.214C316.678 377.602 316.564 376.994 316.441 376.385C316.411 376.237 316.381 376.083 316.347 375.935C316.224 375.339 316.089 374.748 315.949 374.161C315.898 373.94 315.842 373.723 315.792 373.506C315.656 372.957 315.512 372.413 315.363 371.869C315.35 371.818 315.333 371.762 315.316 371.711C315.24 371.443 315.164 371.175 315.083 370.912C314.96 370.486 314.833 370.065 314.697 369.644C314.612 369.376 314.527 369.108 314.442 368.84C314.243 368.224 314.031 367.611 313.814 367.003C313.734 366.782 313.649 366.561 313.568 366.34C313.403 365.889 313.233 365.442 313.055 365C312.953 364.745 312.851 364.489 312.749 364.239C312.541 363.724 312.325 363.214 312.1 362.703C312.011 362.503 311.926 362.303 311.837 362.103C311.591 361.555 311.336 361.006 311.077 360.466C310.971 360.241 310.861 360.019 310.751 359.794C310.517 359.322 310.28 358.85 310.034 358.382C309.945 358.216 309.86 358.046 309.775 357.88C309.452 357.272 309.121 356.668 308.782 356.068C308.68 355.89 308.578 355.711 308.472 355.537C308.196 355.065 307.921 354.597 307.636 354.129C307.534 353.959 307.433 353.789 307.326 353.623C306.953 353.023 306.575 352.428 306.185 351.841C306.109 351.726 306.032 351.615 305.956 351.5C305.621 351.003 305.281 350.509 304.938 350.02C304.823 349.859 304.708 349.697 304.594 349.535C304.174 348.949 303.745 348.37 303.308 347.796C302.863 347.213 302.409 346.639 301.955 346.065C301.666 345.695 301.373 345.329 301.081 344.963C300.279 343.964 299.464 342.977 298.645 341.999C297.949 341.17 297.249 340.349 296.54 339.532C295.925 338.822 295.306 338.12 294.686 337.423C293.986 336.64 293.286 335.862 292.577 335.088C291.58 333.999 290.579 332.914 289.569 331.838C288.886 331.111 288.194 330.384 287.507 329.661C286.145 328.232 284.766 326.811 283.382 325.391C282.661 324.65 281.94 323.91 281.214 323.17C279.801 321.729 278.38 320.283 276.954 318.824C274.815 316.638 272.668 314.426 270.517 312.163C263.741 305.039 253.723 294.874 242.559 283.68C239.462 280.575 236.275 277.39 233.042 274.17C233.033 274.162 233.029 274.157 233.02 274.149C231.735 272.869 230.441 271.58 229.146 270.291C228.485 269.632 227.823 268.973 227.156 268.314C225.858 267.025 224.56 265.732 223.261 264.443C199.657 241.009 176.103 217.935 169.356 211.33C169.004 210.986 168.618 210.692 168.202 210.437C167.175 209.803 165.991 209.459 164.769 209.459H41.909C41.0773 209.459 40.6572 210.463 41.2385 211.058L49.8479 219.837L51.9822 222.014L98.9581 269.926L192.906 365.753C194.416 367.292 193.678 369.742 191.849 370.389C191.556 370.491 191.242 370.55 190.899 370.55H5.65123C4.08551 370.55 2.70649 371.32 1.85362 372.502C1.56084 372.911 1.32322 373.361 1.17471 373.855C1.12804 374.004 1.08985 374.153 1.06015 374.306C0.996499 374.612 0.966797 374.927 0.966797 375.254V443.006V449.675C0.966797 449.837 0.975283 449.998 0.992256 450.156C1.09833 451.185 1.53538 452.117 2.19731 452.84C2.29915 452.95 2.40522 453.056 2.51555 453.159C2.98229 453.584 3.53815 453.916 4.14492 454.124C4.62015 454.286 5.12508 454.379 5.65548 454.379H252.62C270.241 454.379 287.43 447.625 299.57 434.815C313.534 420.078 317.654 404.095 317.782 390.595L317.777 390.565Z" fill="white"/>
<path d="M1272.7 32.7734V1.35742H1292.59C1300.6 1.35742 1303.2 5.00942 1303.2 9.89342C1303.2 13.9854 1300.95 16.5374 1298 17.4614V17.5494C1301.74 18.3414 1302.58 21.5974 1302.58 26.0414C1302.58 27.5374 1302.62 31.0574 1303.9 32.7734H1296.77C1296.29 31.8934 1295.98 30.3094 1295.98 28.0214C1295.98 23.5334 1295.36 20.3654 1290.52 20.3654H1279.3V32.7734H1272.7ZM1279.3 15.4374H1290.7C1294.35 15.4374 1296.33 14.3374 1296.33 10.8174C1296.33 7.56142 1294.18 6.28542 1290.7 6.28542H1279.3V15.4374Z" fill="white"/>
<path d="M1221.61 32.7734V1.35742H1248.89V6.28542H1228.21V14.2054H1248.05V19.1334H1228.21V27.8454H1249.24V32.7734H1221.61Z" fill="white"/>
<path d="M1164.03 32.7734V1.35742H1170.63V13.5894H1190.12V1.35742H1196.72V32.7734H1190.12V18.5174H1170.63V32.7734H1164.03Z" fill="white"/>
<path d="M1123.96 32.7734V6.28542H1112.17V1.35742H1142.36V6.28542H1130.56V32.7734H1123.96Z" fill="white"/>
<path d="M1064.29 32.7734V1.35742H1091.57V6.28542H1070.89V14.2054H1090.73V19.1334H1070.89V27.8454H1091.92V32.7734H1064.29Z" fill="white"/>
<path d="M1039.38 15.5265V32.7745H1035.5L1034.58 28.6825C1032.03 31.7625 1027.54 33.6545 1022.61 33.6545C1009.32 33.6545 1004.13 25.9105 1004.13 17.0665C1004.13 8.22252 1009.63 0.478516 1022.44 0.478516C1031.98 0.478516 1038.1 5.31852 1038.8 11.4785H1031.68C1030.49 7.21052 1026.53 5.40652 1022.26 5.40652C1014.12 5.40652 1011 10.3785 1011 17.2865C1011 25.6465 1016.36 28.7265 1021.91 28.7265C1028.64 28.7265 1031.72 25.6465 1032.78 20.4545H1023.89V15.5265H1039.38Z" fill="white"/>
<path d="M964.258 33.6545C950.97 33.6545 945.778 25.9105 945.778 17.0665C945.778 8.22252 950.97 0.478516 964.258 0.478516C977.546 0.478516 982.738 8.22252 982.738 17.0665C982.738 25.9105 977.546 33.6545 964.258 33.6545ZM964.258 28.7265C971.65 28.7265 975.874 23.9745 975.874 17.0665C975.874 10.1585 971.65 5.40652 964.258 5.40652C956.866 5.40652 952.642 10.1585 952.642 17.0665C952.642 23.9745 956.866 28.7265 964.258 28.7265Z" fill="white"/>
<path d="M907.474 32.7734V6.28542H895.682V1.35742H925.866V6.28542H914.074V32.7734H907.474Z" fill="white"/>
<path d="M807.363 32.7734V1.35742H814.931L833.631 24.9414H833.719V1.35742H840.055V32.7734H832.619L813.787 9.18942H813.699V32.7734H807.363Z" fill="white"/>
<path d="M765.729 33.6545C752.441 33.6545 747.249 25.9105 747.249 17.0665C747.249 8.22252 752.441 0.478516 765.729 0.478516C779.017 0.478516 784.209 8.22252 784.209 17.0665C784.209 25.9105 779.017 33.6545 765.729 33.6545ZM765.729 28.7265C773.121 28.7265 777.345 23.9745 777.345 17.0665C777.345 10.1585 773.121 5.40652 765.729 5.40652C758.337 5.40652 754.113 10.1585 754.113 17.0665C754.113 23.9745 758.337 28.7265 765.729 28.7265Z" fill="white"/>
<path d="M717.509 32.7734V1.35742H724.109V32.7734H717.509Z" fill="white"/>
<path d="M664.744 10.2025C664.744 3.20651 670.948 0.478516 678.604 0.478516C683.444 0.478516 693.124 1.35851 693.96 10.4665H686.832C686.612 8.04652 684.412 5.40652 678.912 5.40652C674.512 5.40652 671.608 6.77052 671.608 9.71852C671.608 17.1105 695.016 10.0265 695.016 23.4465C695.016 31.5425 686.612 33.6545 679.924 33.6545C668.616 33.6545 664.084 29.2105 663.996 22.6105H671.124C671.3 26.7465 674.732 28.7265 680.144 28.7265C684.148 28.7265 687.888 27.5385 687.888 24.1065C687.888 16.3185 664.744 23.0945 664.744 10.2025Z" fill="white"/>
<path d="M613.65 10.2025C613.65 3.20651 619.854 0.478516 627.51 0.478516C632.35 0.478516 642.03 1.35851 642.866 10.4665H635.738C635.518 8.04652 633.318 5.40652 627.818 5.40652C623.418 5.40652 620.514 6.77052 620.514 9.71852C620.514 17.1105 643.922 10.0265 643.922 23.4465C643.922 31.5425 635.518 33.6545 628.83 33.6545C617.522 33.6545 612.99 29.2105 612.902 22.6105H620.03C620.206 26.7465 623.638 28.7265 629.05 28.7265C633.054 28.7265 636.794 27.5385 636.794 24.1065C636.794 16.3185 613.65 23.0945 613.65 10.2025Z" fill="white"/>
<path d="M570.579 20.0574H581.403L576.035 6.81342L570.579 20.0574ZM558.215 32.7734L572.207 1.35742H580.039L594.031 32.7734H586.683L583.383 24.9854H568.599L565.343 32.7734H558.215Z" fill="white"/>
<path d="M517.329 6.28542V15.8774H527.934C531.674 15.8774 533.697 14.8654 533.697 11.1254C533.697 7.25342 530.97 6.28542 528.418 6.28542H517.329ZM510.729 32.7734V1.35742H530.09C537.79 1.35742 540.298 6.06542 540.298 11.1254C540.298 15.9214 537.261 20.8054 530.177 20.8054H517.329V32.7734H510.729Z" fill="white"/>
<path d="M422.422 32.7734V1.35742H442.31C450.318 1.35742 452.914 5.00942 452.914 9.89342C452.914 13.9854 450.67 16.5374 447.722 17.4614V17.5494C451.462 18.3414 452.298 21.5974 452.298 26.0414C452.298 27.5374 452.342 31.0574 453.618 32.7734H446.49C446.006 31.8934 445.698 30.3094 445.698 28.0214C445.698 23.5334 445.082 20.3654 440.242 20.3654H429.022V32.7734H422.422ZM429.022 15.4374H440.418C444.07 15.4374 446.05 14.3374 446.05 10.8174C446.05 7.56142 443.894 6.28542 440.418 6.28542H429.022V15.4374Z" fill="white"/>
<path d="M367.025 19.2654V1.35742H373.625V19.0894C373.625 23.4454 373.801 28.7254 382.381 28.7254C391.005 28.7254 391.181 23.4454 391.181 19.0894V1.35742H397.781V19.2654C397.781 24.4574 397.605 33.6534 382.381 33.6534C367.201 33.6534 367.025 24.4574 367.025 19.2654Z" fill="white"/>
<path d="M325.655 33.6545C312.367 33.6545 307.175 25.9105 307.175 17.0665C307.175 8.22252 312.367 0.478516 325.655 0.478516C338.943 0.478516 344.135 8.22252 344.135 17.0665C344.135 25.9105 338.943 33.6545 325.655 33.6545ZM325.655 28.7265C333.047 28.7265 337.271 23.9745 337.271 17.0665C337.271 10.1585 333.047 5.40652 325.655 5.40652C318.263 5.40652 314.039 10.1585 314.039 17.0665C314.039 23.9745 318.263 28.7265 325.655 28.7265Z" fill="white"/>
<path d="M234.922 32.7734V6.28542H223.13V1.35742H253.314V6.28542H241.522V32.7734H234.922Z" fill="white"/>
<path d="M170.945 19.2654V1.35742H177.545V19.0894C177.545 23.4454 177.721 28.7254 186.301 28.7254C194.925 28.7254 195.101 23.4454 195.101 19.0894V1.35742H201.701V19.2654C201.701 24.4574 201.525 33.6534 186.301 33.6534C171.121 33.6534 170.945 24.4574 170.945 19.2654Z" fill="white"/>
<path d="M129.575 33.6545C116.287 33.6545 111.095 25.9105 111.095 17.0665C111.095 8.22252 116.287 0.478516 129.575 0.478516C142.863 0.478516 148.055 8.22252 148.055 17.0665C148.055 25.9105 142.863 33.6545 129.575 33.6545ZM129.575 28.7265C136.967 28.7265 141.191 23.9745 141.191 17.0665C141.191 10.1585 136.967 5.40652 129.575 5.40652C122.183 5.40652 117.959 10.1585 117.959 17.0665C117.959 23.9745 122.183 28.7265 129.575 28.7265Z" fill="white"/>
<path d="M55.2734 32.7734V1.35742H61.8734V13.5894H81.3654V1.35742H87.9654V32.7734H81.3654V18.5174H61.8734V32.7734H55.2734Z" fill="white"/>
<path d="M2.50777 10.2025C2.50777 3.20651 8.71177 0.478516 16.3678 0.478516C21.2078 0.478516 30.8878 1.35851 31.7238 10.4665H24.5958C24.3758 8.04652 22.1758 5.40652 16.6758 5.40652C12.2758 5.40652 9.37177 6.77052 9.37177 9.71852C9.37177 17.1105 32.7798 10.0265 32.7798 23.4465C32.7798 31.5425 24.3758 33.6545 17.6878 33.6545C6.37977 33.6545 1.84777 29.2105 1.75977 22.6105H8.88777C9.06377 26.7465 12.4958 28.7265 17.9078 28.7265C21.9118 28.7265 25.6518 27.5385 25.6518 24.1065C25.6518 16.3185 2.50777 23.0945 2.50777 10.2025Z" fill="white"/>
</svg>
